HIERARCHY
ROOT Hips
{
	OFFSET 0.00000 0.00000 0.00000
	CHANNELS 6 Xposition Yposition Zposition Zrotation Yrotation Xrotation 
	JOINT LHipJoint
	{
		OFFSET 0 0 0
		CHANNELS 3 Zrotation Yrotation Xrotation
		JOINT LeftHip
		{
			OFFSET 1.85742 -1.74412 1.01653
			CHANNELS 3 Zrotation Yrotation Xrotation
			JOINT LeftKnee
			{
				OFFSET 2.54803 -7.00067 0.00000
				CHANNELS 3 Zrotation Yrotation Xrotation
				JOINT LeftAnkle
				{
					OFFSET 2.51202 -6.90173 0.00000
					CHANNELS 3 Zrotation Yrotation Xrotation
					JOINT LeftToe
					{
						OFFSET 0.17547 -0.48209 1.64281
						CHANNELS 3 Zrotation Yrotation Xrotation
						End Site
						{
							OFFSET 0.00000 -0.00000 0.86587
						}
					}
				}
			}
		}
	}
	JOINT RHipJoint
	{
		OFFSET 0 0 0
		CHANNELS 3 Zrotation Yrotation Xrotation
		JOINT RightHip
		{
			OFFSET -1.95533 -1.74413 1.01654
			CHANNELS 3 Zrotation Yrotation Xrotation
			JOINT RightKnee
			{
				OFFSET -2.49465 -6.85400 0.00000
				CHANNELS 3 Zrotation Yrotation Xrotation
				JOINT RightAnkle
				{
					OFFSET -2.54783 -7.00010 0.00000
					CHANNELS 3 Zrotation Yrotation Xrotation
					JOINT RightToe
					{
						OFFSET -0.18513 -0.50864 1.69288
						CHANNELS 3 Zrotation Yrotation Xrotation
						End Site
						{
							OFFSET -0.00000 -0.00000 0.89242
						}
					}
				}
			}
		}
	}
	JOINT lowerback
	{
		OFFSET 0 0 0
		CHANNELS 3 Zrotation Yrotation Xrotation
		JOINT Chest
		{
			OFFSET 0.02173 2.16290 -0.15998
			CHANNELS 3 Zrotation Yrotation Xrotation
			JOINT Chest2
			{
				OFFSET 0.00940 2.17323 -0.00467
				CHANNELS 3 Zrotation Yrotation Xrotation
				JOINT lowerneck
				{
					OFFSET 0 0 0
					CHANNELS 3 Zrotation Yrotation Xrotation
					JOINT Neck
					{
						OFFSET 0.01475 1.85823 0.31113
						CHANNELS 3 Zrotation Yrotation Xrotation
						JOINT Head
						{
							OFFSET 0.01902 1.88783 -0.37187
							CHANNELS 3 Zrotation Yrotation Xrotation
							End Site
							{
								OFFSET 0.00489 1.93211 -0.16169
							}
						}
					}
				}
				JOINT LeftCollar
				{
					OFFSET 0 0 0
					CHANNELS 3 Zrotation Yrotation Xrotation
					JOINT LeftShoulder
					{
						OFFSET 3.34199 1.32384 -0.07862
CHANNELS 3 Zrotation Xrotation Yrotation
						JOINT LeftElbow
						{
OFFSET 0 -5.279500 0.000000
CHANNELS 3 Zrotation Xrotation Yrotation
							JOINT LeftWrist
							{
OFFSET 0 -3.535040 0.000000
CHANNELS 3 Zrotation Xrotation Yrotation
								JOINT lhand
								{
									OFFSET 0 0 0
CHANNELS 3 Zrotation Xrotation Yrotation
									JOINT LFingers
									{
OFFSET 0 -0.667950 0.000000
CHANNELS 3 Zrotation Xrotation Yrotation
										End Site
										{
OFFSET 0 -0.538520 0.000000
										}
									}
								}
								JOINT LThumb
								{
OFFSET 0 0.000000 0.000000
CHANNELS 3 Zrotation Xrotation Yrotation
									End Site
									{
OFFSET 0 -0.546740 0.546740
									}
								}
							}
						}
					}
				}
				JOINT RightCollar
				{
					OFFSET 0 0 0
					CHANNELS 3 Zrotation Yrotation Xrotation
					JOINT RightShoulder
					{
						OFFSET -3.16149 1.45719 -0.50507
CHANNELS 3 Zrotation Xrotation Yrotation
						JOINT RightElbow
						{
OFFSET 0 -5.250350 0.000000
CHANNELS 3 Zrotation Xrotation Yrotation
							JOINT RightWrist
							{
OFFSET 0 -3.588840 0.000000
CHANNELS 3 Zrotation Xrotation Yrotation
								JOINT rhand
								{
									OFFSET 0 0 0
CHANNELS 3 Zrotation Xrotation Yrotation
									JOINT RFingers
									{
OFFSET 0 -0.779240 0.000000
CHANNELS 3 Zrotation Xrotation Yrotation
										End Site
										{
OFFSET 0 -0.628240 0.000000
										}
									}
								}
								JOINT RThumb
								{
OFFSET 0 0.000000 0.000000
CHANNELS 3 Zrotation Xrotation Yrotation
									End Site
									{
OFFSET 0 -0.637830 0.637830
									}
								}
							}
						}
					}
				}
			}
		}
	}
}
MOTION
Frames: 5
Frame Time: 0.008333333333333333
-2.203093 17.787147 0.689160 -160.961321 82.445737 -153.314588 0.000000 0.000000 0.000000 -11.162536 -25.685456 -8.192715 1.158433 6.833039 19.221750 0.262332 6.798036 -14.482475 3.761373 -11.835939 -35.153997 0.000000 0.000000 0.000000 21.523034 4.746409 0.575692 0.000000 0.000000 0.000000 1.000921 -17.632650 -9.843293 -0.016134 0.817864 -2.247873 1.442271 0.017606 1.365530 1.622917 0.125352 -1.873490 0.852654 0.061426 -2.689208 1.197710 -0.359519 -22.807018 -0.814998 1.414393 43.482541 -0.047856 1.261758 21.563741 0.000000 0.000000 0.000000 0.111980 -3.506542 -64.988553 51.439232 -53.559733 27.327725 26.390988 -20.877881 -52.923836 0.000000 0.000000 0.000000 -7.125000 0.000000 0.000000 -62.766125 81.556525 54.944162 0.000000 0.000000 0.000000 -6.940408 0.722069 56.224548 -84.315830 -59.877587 -55.079450 -39.647269 -60.034089 -15.399764 0.000000 0.000000 0.000000 7.125000 0.000000 0.000000 -7.888001 10.442363 -6.390158
-2.199639 17.786099 0.685199 -160.806721 82.628902 -153.165124 0.000000 0.000000 0.000000 -11.250803 -25.684079 -8.084540 1.153518 6.819014 19.180323 0.248738 7.005330 -14.490195 3.761348 -11.835811 -35.153737 0.000000 0.000000 0.000000 21.460443 4.909718 0.630417 0.000000 0.000000 0.000000 1.007063 -17.668897 -9.770512 -0.027424 1.064614 -2.926565 1.486489 0.008401 1.327587 1.528998 0.111041 -1.909930 0.732052 0.051860 -2.704983 1.363170 -0.274603 -22.770952 -0.994287 1.560520 43.482550 -0.137320 1.318884 21.560427 0.000000 0.000000 0.000000 0.061572 -3.568143 -65.267861 51.450501 -53.564036 27.336873 27.642758 -18.810660 -52.774170 0.000000 0.000000 0.000000 -7.125000 0.000000 0.000000 -61.835600 82.065488 54.562805 0.000000 0.000000 0.000000 -6.766411 0.747909 56.382415 -84.363372 -59.879621 -55.120488 -39.744953 -59.970194 -15.278612 0.000000 0.000000 0.000000 7.125000 0.000000 0.000000 -7.972393 10.568837 -6.439075
-2.196064 17.784700 0.681832 -160.440037 82.845313 -152.821065 0.000000 0.000000 0.000000 -11.328338 -25.555950 -7.989555 1.146830 6.799957 19.124106 0.241431 7.121373 -14.500805 3.776128 -11.856359 -35.225806 0.000000 0.000000 0.000000 21.411852 5.109336 0.705758 0.000000 0.000000 0.000000 1.015637 -17.724724 -9.698959 -0.036599 1.234286 -3.393795 1.514210 0.006827 1.284779 1.465849 0.106924 -1.928492 0.651776 0.048328 -2.699780 1.529112 -0.146468 -22.691512 -1.159954 1.767907 43.444878 -0.205402 1.400173 21.518083 0.000000 0.000000 0.000000 0.133639 -3.485430 -65.595376 51.671370 -53.647576 27.514764 28.650257 -17.341267 -52.859651 0.000000 0.000000 0.000000 -7.125000 0.000000 0.000000 -62.664908 82.522918 55.785365 0.000000 0.000000 0.000000 -6.691325 0.754142 56.594335 -84.444675 -59.883100 -55.190840 -39.864033 -59.856359 -15.092229 0.000000 0.000000 0.000000 7.125000 0.000000 0.000000 -8.082283 10.770998 -6.496102
-2.193260 17.784627 0.679105 -159.919524 83.055072 -152.349015 0.000000 0.000000 0.000000 -11.403302 -25.492234 -7.835560 1.140189 6.781047 19.068308 0.235368 7.280113 -14.574793 3.749393 -11.819240 -35.095557 0.000000 0.000000 0.000000 21.377980 5.300708 0.806351 0.000000 0.000000 0.000000 1.020201 -17.760592 -9.703222 -0.033310 1.177019 -3.235967 1.515376 -0.013155 1.257242 1.437703 0.078003 -1.914566 0.623213 0.033519 -2.669783 1.641097 -0.026190 -22.678881 -1.307125 1.973622 43.408463 -0.254626 1.472014 21.497853 0.000000 0.000000 0.000000 0.316828 -3.336097 -65.897946 52.153645 -53.827541 27.903655 29.448038 -16.750433 -53.207833 0.000000 0.000000 0.000000 -7.125000 0.000000 0.000000 -65.650922 82.933943 59.013178 0.000000 0.000000 0.000000 -6.699316 0.683118 56.878832 -84.419329 -59.882004 -55.168903 -40.020068 -59.948281 -15.107521 0.000000 0.000000 0.000000 7.125000 0.000000 0.000000 -8.179644 10.715198 -6.585519
-2.191658 17.785240 0.676517 -159.447928 83.278770 -151.908352 0.000000 0.000000 0.000000 -11.487525 -25.451619 -7.691113 1.134335 6.764167 19.018501 0.228134 7.464171 -14.660950 3.706827 -11.759734 -34.887198 0.000000 0.000000 0.000000 21.330532 5.508856 0.886635 0.000000 0.000000 0.000000 1.024005 -17.786750 -9.680417 -0.035628 1.216483 -3.344553 1.489497 -0.020828 1.236731 1.416237 0.065133 -1.898522 0.616149 0.027246 -2.641605 1.649941 0.053513 -22.719544 -1.383506 2.130114 43.399565 -0.259233 1.517690 21.510842 0.000000 0.000000 0.000000 0.596944 -3.176279 -66.285456 52.789826 -54.059859 28.417971 29.506938 -17.602410 -53.311089 0.000000 0.000000 0.000000 -7.125000 0.000000 0.000000 -66.499567 82.975420 59.861164 0.000000 0.000000 0.000000 -6.767941 0.589743 57.168409 -84.362171 -59.879579 -55.119415 -40.119621 -60.202232 -15.194730 0.000000 0.000000 0.000000 7.125000 0.000000 0.000000 -8.227788 10.583538 -6.647374
